# xmcd
#
# Track frame offsets:
#	150
#	16067
#	35194
#	47364
#	60853
#	76397
#	95252
#	115224
#	128623
#	143334
#	161954
#
# Disc length: 2351 seconds
#
# Revision: 5
# Processed by: cddbd v1.5.2PL0 Copyright (c) Steve Scherf et al.
# Submitted via: EasyCDDAExtractor 16.0.9.1
#
DISCID=7d092d0b
DTITLE=Thalia - Lunada
DYEAR=2008
DGENRE=Latin
TTITLE0=Ten Paciencia
TTITLE1=Sangre Caliente
TTITLE2=Sera Porque Te Amo
TTITLE3=Con Este Amor
TTITLE4=Bendita
TTITLE5=Desolvidandote
TTITLE6=Isla Para Dos
TTITLE7=Insensible
TTITLE8=Aventurero
TTITLE9=Yo No Se Vivir
TTITLE10=Solo Se Vive Una Vez
EXTD=
EXTT0=
EXTT1=
EXTT2=
EXTT3=
EXTT4=
EXTT5=
EXTT6=
EXTT7=
EXTT8=
EXTT9=
EXTT10=
PLAYORDER=
